<svg xmlns="http://www.w3.org/2000/svg" xmlns:xlink="http://www.w3.org/1999/xlink" height="45" width="45"><defs><linearGradient gradientUnits="userSpaceOnUse" y2="19.33" x2="27.92" y1="19.33" id="a"><stop stop-color="#6cc3ee" offset="0"/><stop stop-color="#3bc3ff" offset="1"/></linearGradient><linearGradient xlink:href="#a" y2="13.25" x2="19.09" y1="13.25" x1="8.83" id="c" gradientTransform="translate(8.545 6.37)"/><linearGradient y2="19.33" x2="27.92" y1="19.33" gradientUnits="userSpaceOnUse" id="b" xlink:href="#a" gradientTransform="translate(8.54 6.37)"/></defs><path d="M22.54 6.37a14.07 14.07 0 0 0-14 14c0 7.42 9.78 18.3 14 24.61 4.14-6.27 13.92-17.15 13.92-24.61a14 14 0 0 0-13.92-14zm0 22.88a9 9 0 0 1-9.15-9 9.07 9.07 0 0 1 18.14 0 9 9 0 0 1-8.99 9z" fill="url(#b)" transform="translate(-3.724 -7.424) scale(1.1655)"/><path d="M22.545 14.84l-5.17 4.34h1.17v5.19h2.57v-3.63h2.76v3.63h2.57v-5.19h1.18z" fill="url(#c)" transform="translate(-3.724 -7.424) scale(1.1655)"/></svg>