<svg xmlns="http://www.w3.org/2000/svg" xmlns:xlink="http://www.w3.org/1999/xlink" width="45" height="45"><defs><linearGradient id="a" y1="9.62" x2="19.25" y2="9.62" gradientUnits="userSpaceOnUse"><stop offset="0" stop-color="#6cc3ee"/><stop offset="1" stop-color="#3bc3ff"/></linearGradient><linearGradient id="c" x1="4.48" y1="9.62" x2="14.77" y2="9.62" xlink:href="#a" gradientTransform="translate(11.64 2.475)"/><linearGradient id="d" y1="32.89" x2="19.25" y2="32.89" xlink:href="#a" gradientTransform="translate(11.64 2.475)"/><linearGradient id="e" x1="4.48" y1="32.89" x2="14.77" y2="32.89" xlink:href="#a" gradientTransform="translate(11.64 2.475)"/><linearGradient xlink:href="#a" id="b" gradientUnits="userSpaceOnUse" y1="9.62" x2="19.25" y2="9.62" gradientTransform="translate(11.64 2.475)"/></defs><path d="M21.26 4.855a7.24 7.24 0 1 1-7.24 7.24 7.25 7.25 0 0 1 7.24-7.24m0-2.38a9.63 9.63 0 1 0 9.63 9.62 9.62 9.62 0 0 0-9.63-9.62z" fill="url(#b)" transform="matrix(1.05808 0 0 1.05808 .005 -2.619)"/><path d="M25.03 8.405l1.38 1.38-6.02 6-4.27-4.27 1.38-1.37 2.89 2.9z" fill="url(#c)" transform="matrix(1.05808 0 0 1.05808 .005 -2.619)"/><path d="M21.26 28.125a7.24 7.24 0 1 1-7.24 7.24 7.25 7.25 0 0 1 7.24-7.24m0-2.38a9.63 9.63 0 1 0 9.63 9.62 9.62 9.62 0 0 0-9.63-9.62z" fill="url(#d)" transform="matrix(1.05808 0 0 1.05808 .005 -2.619)"/><path d="M25.03 31.675l1.38 1.38-6.02 6-4.27-4.27 1.38-1.38 2.89 2.91z" fill="url(#e)" transform="matrix(1.05808 0 0 1.05808 .005 -2.619)"/></svg>