<svg xmlns="http://www.w3.org/2000/svg" width="749.451" height="105.871"><defs><clipPath clipPathUnits="userSpaceOnUse" id="a"><path d="M0 612h792V0H0z"/></clipPath><clipPath clipPathUnits="userSpaceOnUse" id="b"><path d="M271.258 345.702h405.786v-79.404H271.258z"/></clipPath><linearGradient x1="0" y1="0" x2="1" y2="0" gradientUnits="userSpaceOnUse" gradientTransform="matrix(123.04948 0 0 -123.04948 114.956 303.95)" spreadMethod="pad" id="c"><stop offset="0" stop-color="#87d8ee"/><stop offset="0" stop-color="#87d8ee"/><stop offset="0" stop-color="#87d8ee"/><stop offset=".704" stop-color="#87d8ee"/><stop offset="1" stop-color="#42c2f3"/></linearGradient><clipPath clipPathUnits="userSpaceOnUse" id="d"><path d="M0 612h792V0H0z"/></clipPath><clipPath clipPathUnits="userSpaceOnUse" id="e"><path d="M125.719 343.629h123.05v-69.708h-123.05z"/></clipPath><linearGradient x1="0" y1="0" x2="1" y2="0" gradientUnits="userSpaceOnUse" gradientTransform="matrix(123.04948 0 0 -123.04948 125.72 308.775)" spreadMethod="pad" id="f"><stop offset="0" stop-color="#b8e8fb"/><stop offset="0" stop-color="#b8e8fb"/><stop offset="0" stop-color="#b8e8fb"/><stop offset=".559" stop-color="#42c2f3"/><stop offset="1" stop-color="#42c2f3"/></linearGradient><clipPath clipPathUnits="userSpaceOnUse" id="g"><path d="M217.599 293.394h20.406v-19.473h-20.406z"/></clipPath></defs><g clip-path="url(#a)" transform="matrix(1.33333 0 0 -1.33333 -153.275 460.935)"><g clip-path="url(#b)"><path d="M306.191 331.293c-2.384-2.488-6.323-2.592-8.915-.312-1.45 1.348-3.316 2.177-5.39 2.177-4.354 0-7.879-3.628-7.879-8.085V312.22h9.848c3.421 0 6.323-2.8 6.323-6.22 0-3.524-2.902-6.323-6.323-6.323h-9.848v-26.33c0-3.421-2.902-6.323-6.426-6.323-3.42 0-6.324 2.902-6.324 6.323v51.727c0 11.403 9.33 20.628 20.628 20.628 5.184 0 10.16-1.97 13.994-5.494 2.49-2.384 2.592-6.427.312-8.914M329.045 306a13.228 13.228 0 0 1-13.27-13.27 13.228 13.228 0 0 1 13.27-13.268 13.229 13.229 0 0 1 13.269 13.268 13.23 13.23 0 0 1-13.27 13.27m0-39.287c-14.304 0-26.018 11.61-26.018 26.018 0 14.306 11.714 26.019 26.019 26.019 14.305 0 26.019-11.713 26.122-26.122-.103-14.305-11.817-25.915-26.122-25.915m75.17 35.867c-2.384-2.488-6.22-2.696-8.812-.312-2.28 2.177-5.39 3.42-8.603 3.42-7.05 0-12.855-6.011-12.855-13.371v-19.591c0-3.421-2.798-6.22-6.22-6.22-3.42 0-6.22 2.799-6.22 6.22v39.7c0 3.423 2.8 6.118 6.22 6.118 2.8 0 5.08-1.763 5.91-4.25 3.835 2.383 8.396 3.835 13.165 3.835 6.427 0 12.438-2.488 17.103-6.842 2.489-2.28 2.697-6.22.312-8.707m75.257-4.355v-25.5c0-3.524-2.695-6.22-6.116-6.22s-6.323 2.696-6.323 6.22v25.812c0 4.042-3.628 7.152-7.878 7.152-4.562 0-8.19-3.11-8.19-7.152v-25.812c0-3.524-2.8-6.22-6.116-6.22-3.524 0-6.22 2.696-6.22 6.22v25.812c0 4.042-3.628 7.152-8.085 7.152-4.458 0-8.086-3.11-8.086-7.152v-26.124c0-3.317-2.695-6.115-6.22-6.115-3.316 0-6.22 2.798-6.22 6.115v39.6c0 3.42 2.904 6.322 6.22 6.322 1.97 0 3.837-1.036 4.769-2.487 2.903 1.451 6.116 2.28 9.537 2.28 5.493 0 10.47-2.073 14.305-5.597 3.629 3.524 8.604 5.597 14.306 5.597 11.09 0 20.317-8.81 20.317-19.59zm31.795-31.781c-13.476 0-24.567 11.714-24.567 26.019v19.799c0 3.42 2.59 6.219 5.804 6.219 3.318 0 6.532-2.798 6.532-6.22v-19.798c0-7.463 6.219-13.475 12.23-13.475 7.05 0 12.337 6.012 12.337 13.475v18.97c0 3.524 3.628 6.22 6.427 6.22 3.214 0 5.908-2.696 5.908-6.22v-18.97c0-14.305-11.091-26.02-24.671-26.02m53.71 6.636a6.283 6.283 0 0 0-6.323-6.323c-4.354 0-8.604 2.176-11.299 5.597-3.11 4.042-2.903 8.604-2.903 13.476v53.385c0 3.422 2.798 6.219 6.22 6.219 3.525 0 6.324-2.797 6.324-6.22v-56.286c0-.312-.103-.622-.103-.933 0-.311.103-.622.103-.934 0-.932.725-1.761 1.659-1.761 3.524 0 6.323-2.8 6.323-6.22m75.977 26.974h21.976c-2.074 3.938-5.909 6.22-10.574 6.22-4.768 0-8.915-2.385-11.402-6.22m30.165-10.47h-31.928c1.451-5.91 6.74-10.47 13.165-10.47 3.318 0 8.19 1.347 10.885 3.94 2.487 2.383 6.426 2.383 8.811-.105 2.488-2.384 2.383-6.426-.104-8.81-5.7-5.495-13.683-7.36-19.592-7.36-14.408 0-25.915 11.61-25.915 26.018 0 14.201 11.507 26.02 25.915 26.02 1.555 0 3.006-.105 4.561-.415 7.05-1.348 13.061-5.702 16.794-11.922 1.658-2.902 3.524-6.738 3.316-10.158 0-.934-.415-1.97-.829-3.006-.829-1.97-2.592-3.733-5.079-3.733m-65.302 3.504c0 7.152-5.908 12.957-12.958 12.957-7.15 0-13.06-5.805-13.06-12.957 0-7.153 5.91-12.854 13.06-12.854 7.05 0 12.958 5.7 12.958 12.854m14.41 19.59v-39.7c0-3.214-2.593-5.91-6.013-5.91s-5.494 2.696-5.494 5.91v1.244c-4.458-3.836-9.64-6.116-15.86-6.116-13.89 0-25.086 11.195-25.086 24.982 0 13.786 11.195 25.085 25.085 25.085 6.22 0 11.403-2.384 15.861-6.012v.518c0 3.213 2.073 5.908 5.494 5.908 3.42 0 6.012-2.695 6.012-5.909" fill="#4a4f56"/></g></g><path d="M125.428 335.092c-6.718-7.31-10.472-16.794-10.472-26.675 0-21.537 17.585-39.32 39.32-39.32h71.677c6.521 0 12.052 5.533 12.052 12.053 0 6.719-5.531 12.25-12.052 12.25h-71.677c-8.497 0-15.411 6.718-15.411 15.017 0 3.952 1.581 7.509 4.149 10.275 4.347 4.942 4.15 12.45-.593 16.995-2.268 2.079-5.213 3.118-8.166 3.118-3.223 0-6.455-1.238-8.827-3.713" fill="url(#c)" transform="matrix(1.33333 0 0 -1.33333 -153.275 460.935)"/><g clip-path="url(#d)" transform="matrix(1.33333 0 0 -1.33333 -153.275 460.935)"><g clip-path="url(#e)"><path d="M184.946 319.326h-47.175c-6.52 0-12.052 5.531-12.052 12.249 0 6.52 5.532 12.053 12.052 12.053h71.677c21.736 0 39.321-17.783 39.321-39.32 0-9.881-3.754-19.364-10.473-26.675-4.545-4.743-12.25-4.941-16.992-.594-4.743 4.545-4.94 12.053-.593 16.995 2.567 2.765 4.148 6.321 4.148 10.274 0 8.299-6.914 15.018-15.411 15.018h-24.502" fill="url(#f)"/></g><g clip-path="url(#g)"><path d="M225.954 293.394h-5.748c-3.806-4.932-3.449-12.006 1.098-16.362 4.331-3.969 11.125-4.136 15.734-.526.621 1.437.967 3.006.967 4.638 0 6.718-5.53 12.25-12.05 12.25" fill="#009ad7"/></g></g></svg>