<?xml version="1.0" encoding="UTF-8" standalone="no"?>
<!-- Created with Inkscape (http://www.inkscape.org/) -->

<svg
   xmlns:dc="http://purl.org/dc/elements/1.1/"
   xmlns:cc="http://creativecommons.org/ns#"
   xmlns:rdf="http://www.w3.org/1999/02/22-rdf-syntax-ns#"
   xmlns:svg="http://www.w3.org/2000/svg"
   xmlns="http://www.w3.org/2000/svg"
   xmlns:sodipodi="http://sodipodi.sourceforge.net/DTD/sodipodi-0.dtd"
   xmlns:inkscape="http://www.inkscape.org/namespaces/inkscape"
   version="1.1"
   id="svg3732"
   xml:space="preserve"
   width="749.45062"
   height="105.8712"
   viewBox="0 0 749.45062 105.8712"
   sodipodi:docname="formulae_logo.svg"
   inkscape:version="0.92.4 (f8dce91, 2019-08-02)"><metadata
     id="metadata3738"><rdf:RDF><cc:Work
         rdf:about=""><dc:format>image/svg+xml</dc:format><dc:type
           rdf:resource="http://purl.org/dc/dcmitype/StillImage" /><dc:title></dc:title></cc:Work></rdf:RDF></metadata><defs
     id="defs3736"><clipPath
       clipPathUnits="userSpaceOnUse"
       id="clipPath3748"><path
         d="M 0,612 H 792 V 0 H 0 Z"
         id="path3746"
         inkscape:connector-curvature="0" /></clipPath><clipPath
       clipPathUnits="userSpaceOnUse"
       id="clipPath3756"><path
         d="M 271.258,345.702 H 677.044 V 266.298 H 271.258 Z"
         id="path3754"
         inkscape:connector-curvature="0" /></clipPath><linearGradient
       x1="0"
       y1="0"
       x2="1"
       y2="0"
       gradientUnits="userSpaceOnUse"
       gradientTransform="matrix(123.04948,0,0,-123.04948,114.95589,303.95074)"
       spreadMethod="pad"
       id="linearGradient3816"><stop
         style="stop-opacity:1;stop-color:#87d8ee"
         offset="0"
         id="stop3806" /><stop
         style="stop-opacity:1;stop-color:#87d8ee"
         offset="0"
         id="stop3808" /><stop
         style="stop-opacity:1;stop-color:#87d8ee"
         offset="0"
         id="stop3810" /><stop
         style="stop-opacity:1;stop-color:#87d8ee"
         offset="0.70382393"
         id="stop3812" /><stop
         style="stop-opacity:1;stop-color:#42c2f3"
         offset="1"
         id="stop3814" /></linearGradient><clipPath
       clipPathUnits="userSpaceOnUse"
       id="clipPath3826"><path
         d="M 0,612 H 792 V 0 H 0 Z"
         id="path3824"
         inkscape:connector-curvature="0" /></clipPath><clipPath
       clipPathUnits="userSpaceOnUse"
       id="clipPath3834"><path
         d="m 125.719,343.629 h 123.05 v -69.708 h -123.05 z"
         id="path3832"
         inkscape:connector-curvature="0" /></clipPath><linearGradient
       x1="0"
       y1="0"
       x2="1"
       y2="0"
       gradientUnits="userSpaceOnUse"
       gradientTransform="matrix(123.04948,0,0,-123.04948,125.7192,308.77475)"
       spreadMethod="pad"
       id="linearGradient3850"><stop
         style="stop-opacity:1;stop-color:#b8e8fb"
         offset="0"
         id="stop3840" /><stop
         style="stop-opacity:1;stop-color:#b8e8fb"
         offset="0"
         id="stop3842" /><stop
         style="stop-opacity:1;stop-color:#b8e8fb"
         offset="0"
         id="stop3844" /><stop
         style="stop-opacity:1;stop-color:#42c2f3"
         offset="0.55899024"
         id="stop3846" /><stop
         style="stop-opacity:1;stop-color:#42c2f3"
         offset="1"
         id="stop3848" /></linearGradient><clipPath
       clipPathUnits="userSpaceOnUse"
       id="clipPath3872"><path
         d="m 217.599,293.394 h 20.406 v -19.473 h -20.406 z"
         id="path3870"
         inkscape:connector-curvature="0" /></clipPath></defs><sodipodi:namedview
     pagecolor="#ffffff"
     bordercolor="#666666"
     borderopacity="1"
     objecttolerance="10"
     gridtolerance="10"
     guidetolerance="10"
     inkscape:pageopacity="0"
     inkscape:pageshadow="2"
     inkscape:window-width="1920"
     inkscape:window-height="1043"
     id="namedview3734"
     showgrid="false"
     inkscape:zoom="1.0159314"
     inkscape:cx="374.72534"
     inkscape:cy="52.935876"
     inkscape:window-x="0"
     inkscape:window-y="0"
     inkscape:window-maximized="1"
     inkscape:current-layer="g3740"
     fit-margin-top="0"
     fit-margin-left="0"
     fit-margin-right="0"
     fit-margin-bottom="0" /><g
     id="g3740"
     inkscape:groupmode="layer"
     inkscape:label="Formulea_Logo_V02"
     transform="matrix(1.3333333,0,0,-1.3333333,-153.27466,460.93532)"><g
       id="g3742"><g
         id="g3744"
         clip-path="url(#clipPath3748)"><g
           id="g3750"><g
             id="g3752" /><g
             id="g3792"><g
               clip-path="url(#clipPath3756)"
               id="g3790"><g
                 transform="translate(306.1914,331.2935)"
                 id="g3760"><path
                   d="m 0,0 c -2.384,-2.488 -6.323,-2.592 -8.915,-0.312 -1.451,1.348 -3.316,2.177 -5.391,2.177 -4.353,0 -7.878,-3.628 -7.878,-8.085 v -12.854 h 9.848 c 3.421,0 6.323,-2.799 6.323,-6.22 0,-3.524 -2.902,-6.323 -6.323,-6.323 h -9.848 v -26.33 c 0,-3.421 -2.902,-6.323 -6.426,-6.323 -3.421,0 -6.324,2.902 -6.324,6.323 v 0.208 24.774 26.745 c 0,11.403 9.33,20.628 20.628,20.628 5.184,0 10.16,-1.97 13.994,-5.494 C 2.177,6.53 2.28,2.487 0,0"
                   style="fill:#4a4f56;fill-opacity:1;fill-rule:nonzero;stroke:none"
                   id="path3758"
                   inkscape:connector-curvature="0" /></g><g
                 transform="translate(329.0449,305.9995)"
                 id="g3764"><path
                   d="m 0,0 c -7.36,0 -13.269,-5.908 -13.269,-13.269 0,-7.359 5.909,-13.268 13.269,-13.268 7.359,0 13.269,5.909 13.269,13.268 C 13.269,-5.908 7.359,0 0,0 m 0,-39.287 c -14.305,0 -26.019,11.61 -26.019,26.018 0,14.306 11.714,26.019 26.019,26.019 14.305,0 26.019,-11.713 26.122,-26.122 C 26.019,-27.677 14.305,-39.287 0,-39.287"
                   style="fill:#4a4f56;fill-opacity:1;fill-rule:nonzero;stroke:none"
                   id="path3762"
                   inkscape:connector-curvature="0" /></g><g
                 transform="translate(404.2148,302.5796)"
                 id="g3768"><path
                   d="m 0,0 c -2.384,-2.488 -6.22,-2.696 -8.812,-0.312 -2.28,2.177 -5.39,3.421 -8.603,3.421 -7.05,0 -12.855,-6.012 -12.855,-13.372 v -19.591 c 0,-3.421 -2.798,-6.22 -6.219,-6.22 -3.42,0 -6.22,2.799 -6.22,6.22 V 9.847 c 0,3.422 2.8,6.117 6.22,6.117 2.799,0 5.08,-1.763 5.909,-4.25 3.835,2.383 8.396,3.835 13.165,3.835 6.427,0 12.438,-2.488 17.103,-6.842 C 2.177,6.427 2.385,2.487 0,0"
                   style="fill:#4a4f56;fill-opacity:1;fill-rule:nonzero;stroke:none"
                   id="path3766"
                   inkscape:connector-curvature="0" /></g><g
                 transform="translate(479.4717,298.2251)"
                 id="g3772"><path
                   d="M 0,0 V -0.414 -25.5 c 0,-3.524 -2.695,-6.22 -6.116,-6.22 -3.421,0 -6.323,2.696 -6.323,6.22 V -0.414 0 0.312 c 0,4.042 -3.628,7.152 -7.878,7.152 -4.562,0 -8.19,-3.11 -8.19,-7.152 V 0 -0.414 -25.5 c 0,-3.524 -2.799,-6.22 -6.116,-6.22 -3.524,0 -6.219,2.696 -6.219,6.22 V -0.414 0 0.312 c 0,4.042 -3.629,7.152 -8.086,7.152 -4.458,0 -8.086,-3.11 -8.086,-7.152 v -26.124 c 0,-3.317 -2.695,-6.115 -6.219,-6.115 -3.317,0 -6.22,2.798 -6.22,6.115 v 39.599 c 0,3.421 2.903,6.323 6.22,6.323 1.969,0 3.836,-1.036 4.768,-2.487 2.903,1.451 6.116,2.28 9.537,2.28 5.493,0 10.47,-2.073 14.305,-5.597 3.629,3.524 8.604,5.597 14.306,5.597 C -9.226,19.903 0,11.092 0,0.312 Z"
                   style="fill:#4a4f56;fill-opacity:1;fill-rule:nonzero;stroke:none"
                   id="path3770"
                   inkscape:connector-curvature="0" /></g><g
                 transform="translate(511.2666,266.4439)"
                 id="g3776"><path
                   d="m 0,0 c -13.476,0 -24.567,11.714 -24.567,26.019 v 19.799 c 0,3.421 2.591,6.219 5.804,6.219 3.318,0 6.532,-2.798 6.532,-6.219 V 26.019 c 0,-7.463 6.219,-13.475 12.231,-13.475 7.049,0 12.336,6.012 12.336,13.475 v 18.97 c 0,3.524 3.628,6.22 6.427,6.22 3.214,0 5.908,-2.696 5.908,-6.22 V 26.019 C 24.671,11.714 13.58,0 0,0"
                   style="fill:#4a4f56;fill-opacity:1;fill-rule:nonzero;stroke:none"
                   id="path3774"
                   inkscape:connector-curvature="0" /></g><g
                 transform="translate(564.9775,273.0786)"
                 id="g3780"><path
                   d="m 0,0 c 0,-3.524 -2.799,-6.323 -6.323,-6.323 -4.354,0 -8.604,2.176 -11.299,5.597 -3.11,4.042 -2.903,8.604 -2.903,13.476 v 30.995 22.39 c 0,3.422 2.798,6.219 6.219,6.219 3.525,0 6.324,-2.797 6.324,-6.219 V 9.848 c 0,-0.312 -0.103,-0.622 -0.103,-0.933 0,-0.311 0.103,-0.622 0.103,-0.934 0,-0.932 0.725,-1.761 1.659,-1.761 C -2.799,6.22 0,3.421 0,0"
                   style="fill:#4a4f56;fill-opacity:1;fill-rule:nonzero;stroke:none"
                   id="path3778"
                   inkscape:connector-curvature="0" /></g><g
                 transform="translate(640.9551,300.0533)"
                 id="g3784"><path
                   d="M 0,0 H 21.976 C 19.902,3.938 16.067,6.22 11.402,6.22 6.634,6.22 2.487,3.835 0,0 M 30.165,-10.471 H -1.763 c 1.451,-5.909 6.739,-10.469 13.165,-10.469 3.318,0 8.19,1.347 10.885,3.939 2.487,2.384 6.426,2.384 8.811,-0.104 2.488,-2.384 2.383,-6.426 -0.104,-8.811 -5.701,-5.494 -13.683,-7.359 -19.592,-7.359 -14.408,0 -25.915,11.609 -25.915,26.018 0,14.201 11.507,26.019 25.915,26.019 1.555,0 3.006,-0.104 4.561,-0.414 7.05,-1.348 13.061,-5.702 16.794,-11.922 1.658,-2.902 3.524,-6.738 3.316,-10.158 0,-0.934 -0.415,-1.97 -0.829,-3.006 -0.829,-1.97 -2.592,-3.733 -5.079,-3.733"
                   style="fill:#4a4f56;fill-opacity:1;fill-rule:nonzero;stroke:none"
                   id="path3782"
                   inkscape:connector-curvature="0" /></g><g
                 transform="translate(605.8184,293.0855)"
                 id="g3788"><path
                   d="m 0,0 c 0,7.152 -5.908,12.957 -12.958,12.957 -7.151,0 -13.061,-5.805 -13.061,-12.957 0,-7.153 5.91,-12.854 13.061,-12.854 C -5.908,-12.854 0,-7.153 0,0 M 14.409,19.591 V -20.11 c 0,-3.214 -2.592,-5.91 -6.012,-5.91 -3.421,0 -5.494,2.696 -5.494,5.91 v 1.244 c -4.458,-3.836 -9.641,-6.116 -15.861,-6.116 -13.89,0 -25.085,11.195 -25.085,24.982 0,13.786 11.195,25.085 25.085,25.085 6.22,0 11.403,-2.384 15.861,-6.012 v 0.518 c 0,3.214 2.073,5.909 5.494,5.909 3.42,0 6.012,-2.695 6.012,-5.909"
                   style="fill:#4a4f56;fill-opacity:1;fill-rule:nonzero;stroke:none"
                   id="path3786"
                   inkscape:connector-curvature="0" /></g></g></g></g></g></g><g
       id="g3794"><g
         id="g3796"><g
           id="g3802"><g
             id="g3804"><path
               d="m 125.428,335.092 c -6.718,-7.31 -10.472,-16.794 -10.472,-26.675 v 0 c 0,-21.537 17.585,-39.32 39.32,-39.32 v 0 h 50.981 20.696 c 6.521,0 12.052,5.533 12.052,12.053 v 0 c 0,6.719 -5.531,12.25 -12.052,12.25 v 0 h -21.042 -50.635 c -8.497,0 -15.411,6.718 -15.411,15.017 v 0 c 0,3.952 1.581,7.509 4.149,10.275 v 0 c 4.347,4.942 4.15,12.45 -0.593,16.995 v 0 c -2.268,2.079 -5.213,3.118 -8.166,3.118 v 0 c -3.223,0 -6.455,-1.238 -8.827,-3.713"
               style="fill:url(#linearGradient3816);stroke:none"
               id="path3818"
               inkscape:connector-curvature="0" /></g></g></g></g><g
       id="g3820"><g
         id="g3822"
         clip-path="url(#clipPath3826)"><g
           id="g3828"><g
             id="g3830" /><g
             id="g3864"><g
               clip-path="url(#clipPath3834)"
               id="g3862"><g
                 id="g3860"><g
                   id="g3858"><g
                     id="g3856"><g
                       id="g3854"><path
                         d="m 184.946,319.326 h -47.175 c -6.52,0 -12.052,5.531 -12.052,12.249 0,6.52 5.532,12.053 12.052,12.053 h 2.847 17.85 50.98 c 21.736,0 39.321,-17.783 39.321,-39.32 0,-9.881 -3.754,-19.364 -10.473,-26.675 -4.545,-4.743 -12.25,-4.941 -16.992,-0.594 -4.743,4.545 -4.94,12.053 -0.593,16.995 2.567,2.765 4.148,6.321 4.148,10.274 0,8.299 -6.914,15.018 -15.411,15.018 h -24.502"
                         style="fill:url(#linearGradient3850);stroke:none"
                         id="path3852"
                         inkscape:connector-curvature="0" /></g></g></g></g></g></g></g><g
           id="g3866"><g
             id="g3868" /><g
             id="g3880"><g
               clip-path="url(#clipPath3872)"
               id="g3878"><g
                 transform="translate(225.9541,293.3941)"
                 id="g3876"><path
                   d="m 0,0 h -5.748 c -3.806,-4.932 -3.449,-12.006 1.098,-16.362 4.331,-3.969 11.125,-4.136 15.734,-0.526 0.621,1.437 0.967,3.006 0.967,4.638 C 12.051,-5.532 6.52,0 0,0"
                   style="fill:#009ad7;fill-opacity:1;fill-rule:nonzero;stroke:none"
                   id="path3874"
                   inkscape:connector-curvature="0" /></g></g></g></g></g></g></g></svg>