<svg xmlns="http://www.w3.org/2000/svg" xmlns:xlink="http://www.w3.org/1999/xlink" width="45" height="45"><defs><linearGradient id="a" y1="14.92" x2="29.83" y2="14.92" gradientUnits="userSpaceOnUse"><stop offset="0" stop-color="#6cc3ee"/><stop offset="1" stop-color="#3bc3ff"/></linearGradient><linearGradient id="c" x1="7.46" y1="9.94" x2="22.38" y2="9.94" xlink:href="#a"/><linearGradient id="d" x1="7.46" y1="14.92" x2="22.38" y2="14.92" xlink:href="#a"/><linearGradient id="e" x1="7.46" y1="19.89" x2="22.38" y2="19.89" xlink:href="#a"/><linearGradient xlink:href="#a" id="b" gradientUnits="userSpaceOnUse" y1="14.92" x2="29.83" y2="14.92"/></defs><path d="M29.83 6.22V0h-6.21v2.49H6.22V0H0v6.22h2.49v17.4H0v6.21h6.22v-2.48h17.4v2.48h6.21v-6.21h-2.48V6.22zm-5 18.64H5V5h19.86z" fill="url(#b)" transform="scale(1.50855)"/><path d="M7.46 8.7h14.92v2.49H7.46z" fill="url(#c)" transform="scale(1.50855)"/><path d="M7.46 13.67h14.92v2.49H7.46z" fill="url(#d)" transform="scale(1.50855)"/><path d="M7.46 18.65h14.92v2.49H7.46z" fill="url(#e)" transform="scale(1.50855)"/></svg>