<svg xmlns="http://www.w3.org/2000/svg" xmlns:xlink="http://www.w3.org/1999/xlink" width="45" height="45"><defs><linearGradient id="a" y1="6.69" x2="13.37" y2="6.69" gradientUnits="userSpaceOnUse"><stop offset="0" stop-color="#6cc3ee"/><stop offset="1" stop-color="#3bc3ff"/></linearGradient><linearGradient id="c" y1="22.85" x2="13.37" y2="22.85" xlink:href="#a"/><linearGradient id="d" x1="3.82" y1="22.85" x2="9.55" y2="22.85" xlink:href="#a"/><linearGradient id="e" y1="39.02" x2="13.37" y2="39.02" xlink:href="#a"/><linearGradient id="f" x1="16.48" y1="6.69" x2="30.71" y2="6.69" xlink:href="#a"/><linearGradient id="g" x1="16.48" y1="22.85" x2="30.71" y2="22.85" xlink:href="#a"/><linearGradient id="h" x1="16.48" y1="39.02" x2="30.71" y2="39.02" xlink:href="#a"/><linearGradient xlink:href="#a" id="b" gradientUnits="userSpaceOnUse" y1="6.69" x2="13.37" y2="6.69"/></defs><path d="M6.69 1.66a5 5 0 1 1-5 5 5 5 0 0 1 5-5m0-1.66a6.69 6.69 0 1 0 6.68 6.69A6.68 6.68 0 0 0 6.69 0z" fill="url(#b)" transform="translate(7.397) scale(.98425)"/><g transform="translate(7.397) scale(.98425)"><path d="M6.69 17.82a5 5 0 1 1-5 5 5 5 0 0 1 5-5m0-1.65a6.69 6.69 0 1 0 6.68 6.68 6.68 6.68 0 0 0-6.68-6.68z" fill="url(#c)"/><circle r="2.86" cy="22.85" cx="6.69" fill="url(#d)"/></g><path d="M6.69 34a5 5 0 1 1-5 5 5 5 0 0 1 5-5m0-1.66A6.69 6.69 0 1 0 13.37 39a6.68 6.68 0 0 0-6.68-6.69z" fill="url(#e)" transform="translate(7.397) scale(.98425)"/><path d="M16.48 5.05H30.7v3.26H16.48z" fill="url(#f)" transform="translate(7.397) scale(.98425)"/><path d="M16.48 21.22H30.7v3.26H16.48z" fill="url(#g)" transform="translate(7.397) scale(.98425)"/><path d="M16.48 37.38H30.7v3.26H16.48z" fill="url(#h)" transform="translate(7.397) scale(.98425)"/></svg>