<svg xmlns="http://www.w3.org/2000/svg" xmlns:xlink="http://www.w3.org/1999/xlink" width="45" height="45"><defs><linearGradient id="a" y1="12.11" x2="45.89" y2="12.11" gradientUnits="userSpaceOnUse"><stop offset="0" stop-color="#6cc3ee"/><stop offset="1" stop-color="#3bc3ff"/></linearGradient><linearGradient id="c" x1="5.45" y1="12.11" x2="18.39" y2="12.11" xlink:href="#a"/><linearGradient xlink:href="#a" id="b" gradientUnits="userSpaceOnUse" y1="12.11" x2="45.89" y2="12.11"/></defs><path transform="translate(-.028 10.637) scale(.97997)" d="M33.79 0A12.11 12.11 0 0 0 23 6.75a12.11 12.11 0 1 0 0 10.71A12.1 12.1 0 1 0 33.79 0zM12.11 21.15a9 9 0 1 1 9-9 9.06 9.06 0 0 1-9 9zm27.07-5.39l-1.73 1.74-3.66-3.68-3.68 3.68-1.74-1.74 3.68-3.65-3.63-3.66 1.74-1.74 3.63 3.66 3.66-3.66 1.73 1.74-3.68 3.66z" fill="url(#b)"/><path transform="translate(-.028 10.637) scale(.97997)" d="M16.66 7.46l1.73 1.74-7.57 7.55-5.37-5.37 1.74-1.74 3.63 3.66z" fill="url(#c)"/></svg>